<svg width="1000" height="1000" viewBox="0 0 1000 1000" fill="none" xmlns="http://www.w3.org/2000/svg">
<rect width="1000" height="1000" fill="#483939"/>
<path d="M1013.14 527.776L1073.55 666.818L1102.77 632.558C1082.77 519.547 1086.03 531.888 1074.48 466.8L1155.04 386.236C1166.76 374.522 1162.15 358.36 1151.74 348.214C1141.6 337.802 1125.44 333.204 1113.73 344.918L1033.17 425.469C968.086 413.917 980.415 417.181 867.41 397.172L833.137 426.395L972.179 486.802C972.179 486.802 872.558 585.878 871.25 587.652L811.148 576.386L792.001 595.533L853.327 625.428L874.507 646.609L904.416 707.948L923.557 688.807L912.277 628.692C914.077 627.384 1013.14 527.776 1013.14 527.776Z" fill="white"/>
<path d="M513.14 27.7765L573.547 166.818L602.77 132.558C582.768 19.5465 586.031 31.8882 574.48 -33.2001L655.044 -113.764C666.757 -125.478 662.147 -141.64 651.741 -151.786C641.601 -162.198 625.439 -166.796 613.726 -155.082L533.175 -74.5311C468.086 -86.0828 480.415 -82.8193 367.41 -102.828L333.137 -73.6051L472.179 -13.1984C472.179 -13.1984 372.558 85.8781 371.25 87.6523L311.148 76.3855L292.001 95.5326L353.327 125.428L374.507 146.609L404.416 207.948L423.557 188.807L412.277 128.692C414.077 127.384 513.14 27.7765 513.14 27.7765Z" fill="white"/>
<path d="M513.14 1027.78L573.547 1166.82L602.77 1132.56C582.768 1019.55 586.031 1031.89 574.48 966.8L655.044 886.236C666.757 874.522 662.147 858.36 651.741 848.214C641.601 837.802 625.439 833.204 613.726 844.918L533.175 925.469C468.086 913.917 480.415 917.181 367.41 897.172L333.137 926.395L472.179 986.802C472.179 986.802 372.558 1085.88 371.25 1087.65L311.148 1076.39L292.001 1095.53L353.327 1125.43L374.507 1146.61L404.416 1207.95L423.557 1188.81L412.277 1128.69C414.077 1127.38 513.14 1027.78 513.14 1027.78Z" fill="white"/>
<path d="M13.1404 527.776L73.5472 666.818L102.77 632.558C82.7678 519.547 86.0313 531.888 74.4796 466.8L155.044 386.236C166.757 374.522 162.147 358.36 151.741 348.214C141.601 337.802 125.439 333.204 113.726 344.918L33.1746 425.469C-31.9138 413.917 -19.5851 417.181 -132.59 397.172L-166.863 426.395L-27.8215 486.802C-27.8215 486.802 -127.442 585.878 -128.75 587.652L-188.852 576.386L-207.999 595.533L-146.673 625.428L-125.493 646.609L-95.584 707.948L-76.4434 688.807L-87.7232 628.692C-85.9231 627.384 13.1404 527.776 13.1404 527.776Z" fill="white"/>
</svg>
